/* XPM */
static const char *portaclip32X32_xpm[] = {
/* columns rows colors chars-per-pixel */
"32 32 167 2",
"'  c #0A0B0C",
"%  c Black",
"v  c #D9D9D9",
"V  c #113219",
":  c #F7F7F7",
"6  c #3C3C3C",
"Y. c #030704",
"3. c #25E94D",
"+  c #787878",
"3  c #3F433F",
"h. c #25E64C",
"B. c #22B03D",
"D  c #071E0B",
"   c None",
"7  c #535353",
"]  c #151A17",
"U  c #333834",
"Q  c #101312",
"m  c #9E9E9E",
"8. c #25DD49",
"v. c #4C4F4C",
"z  c #DADADA",
"=  c #F8F8F8",
"5  c #3D3D3D",
"S  c #35FF6D",
"x. c #23DD49",
"^  c #0E100E",
"1. c #363938",
"P  c #33FF6B",
"f  c #0D2311",
"+. c #1D9434",
"a. c #1FB73D",
"{  c #1D9435",
"t. c #1FB43C",
"&  c #202020",
"t  c #707270",
"4  c #3E3E3E",
"F. c #127326",
"X. c #030F04",
"z. c #1DB73C",
"l. c #1DB73D",
"S. c #127024",
"4. c #20C140",
"(  c #0A0D0C",
"k  c #989898",
"k. c #1FAE3A",
"*. c #1FAE3B",
",  c #A7A7A7",
"R  c #2DFF5C",
"n. c #2DFF5D",
"q  c #373737",
"0  c #464646",
"e  c #555555",
"&. c #1AA437",
";  c #646464",
"L. c #050004",
"h  c #A0A0A0",
"M  c #494D49",
"i. c #25E54B",
"w  c #BEBEBE",
"8  c #030303",
"o  c #121212",
"u  c #EBEBEB",
"C. c #7B7E7C",
"@  c #FAFAFA",
"%. c #21C541",
"T. c #010602",
"n  c #7B7B7B",
"0. c #21C240",
"$. c #29FC52",
"F  c #E4E7E4",
"!  c #060706",
"Y  c #515551",
"5. c #25DC48",
"E  c #010000",
"j. c #23E24A",
"I  c #20AC3D",
"H  c #F8F7F7",
"L  c #020D04",
"}  c #363B38",
"R. c #222523",
"i  c #DDDDDD",
"w. c #1D9936",
"Z. c #031A08",
">  c #FBFBFB",
"u. c #1FB93D",
"A  c #1D9635",
"<. c #1D9636",
"j  c #7C7C7C",
"I. c #2A2D2B",
"=. c #21B03D",
"M. c #27F050",
"y  c #C7C7C7",
"O  c #0C0C0C",
"d. c #1A8630",
"p  c #D6D6D6",
"<  c #1B1B1B",
"P. c #E5E5E5",
"$  c #2A2A2A",
"a  c #7A7C7A",
";. c #1FB03C",
"-. c #1FB03D",
"s. c #20C040",
"7. c #24DD49",
" . c #1A802F",
"o. c #000100",
")  c #0A0C0C",
"`  c #0F100E",
"B  c #25C444",
"m. c #27E74D",
"_  c #0F1010",
".  c #FCFCFC",
"r. c #25EA4C",
"U. c #030804",
"p. c #25EA4D",
"2  c #787978",
"W  c #121714",
"s  c #0E2313",
":. c #1AA336",
"1  c #8C8C8C",
"g  c #3F413F",
"b  c #D7D7D7",
"q. c #25E44C",
"G  c #FAF9FA",
">. c #21C13F",
"6. c #25DE49",
"N  c #0C1D0E",
"J  c #F8F9F8",
",. c #29F852",
".. c #2EFF5D",
"*  c #FDFDFD",
"f. c #26EB4D",
"Z  c #4A504C",
"[  c #2CFF59",
"O. c #2CFF5B",
"T  c #197E2E",
"H. c #158A2D",
"A. c #158A2E",
"l  c #D8D8D8",
"d  c #24C244",
"y. c #1FBB3D",
"C  c #636463",
"2. c #1C8532",
"J. c #06230C",
"K. c #130F12",
"g. c #1FB83D",
"c. c #1D9536",
"r  c #3E423E",
"x  c #A4A4A4",
"|  c #525551",
"N. c #27EF50",
"K  c #F9FAF9",
"e. c #1A8530",
"D. c #127426",
"#  c #FEFEFE",
"-  c #616161",
"#. c #1A822F",
"X  c #7F7F7F",
"V. c #323734",
"/  c #0F1210",
"@. c #505551",
"c  c #9D9D9D",
"9  c #ACACAC",
"~  c #0A0B0A",
"G. c #126E24",
"b. c #1E9C38",
"9. c #24DC49",
/* pixels */
"                      .     X o O + @   .                       ",
"                    #     $ % % % % &     #                     ",
"        * = @ @ @ =     % % % - ; % % %     : @ @ @ = >         ",
"                      , % < #       $ % 1                       ",
"          2 3 4 5 6 7 8 % 9   0 q   w % % e 4 6 4 r t           ",
"  *     % % % % % % % % % y u % % i p % % % % % % % % %     .   ",
"  =   a % s d f % g h j k l z x c v b h n m M % N B V % C   =   ",
"  =   Z % A S D % F       G :     H J       K % L P I % U   @   ",
"  @   Y % T R E % W Q ! ~ ^ / ( ) _ ` ' ! ` ] % % [ { % }   @   ",
"  =   | %  ...X.% % % % % % % % % % % % % % % % o.O.+.% }   @   ",
"  =   @.% #.$.%.&.*.=.-.-.-.-.-.-.-.-.-.-.=.;.:.>.,.<.% 1.  @   ",
"  =   @.% 2.3.4.5.6.7.7.8.8.8.8.8.8.8.8.7.7.6.9.0.q.w.% 1.  @   ",
"  =   @.% e.r.t.y.u.u.u.u.u.u.u.u.u.u.u.u.u.u.y.t.i.w.% 1.  @   ",
"  =   @.% e.p.a.4.s.s.s.s.s.s.s.s.s.s.s.s.s.s.4.a.i.w.% 1.  @   ",
"  =   @.% e.p.a.s.s.s.s.s.s.s.s.s.s.s.s.s.s.s.s.a.i.w.% 1.  @   ",
"  =   @.% e.p.a.s.s.s.s.s.s.s.s.s.s.s.s.s.s.s.s.a.i.w.% 1.  @   ",
"  =   @.% e.p.a.s.s.s.s.s.s.s.s.s.s.s.s.s.s.s.s.a.i.w.% 1.  @   ",
"  =   @.% e.p.a.s.s.s.s.s.s.s.s.s.s.s.s.s.s.s.s.a.i.w.% 1.  @   ",
"  =   @.% e.p.a.s.s.s.s.s.s.s.s.s.s.s.s.s.s.s.s.a.i.w.% 1.  @   ",
"  =   @.% e.p.a.s.s.s.s.s.s.s.s.s.s.s.s.s.s.s.s.a.i.w.% 1.  @   ",
"  =   @.% e.p.a.s.s.s.s.s.s.s.s.s.s.s.s.s.s.s.s.a.i.w.% 1.  @   ",
"  =   @.% e.p.a.s.s.s.s.s.s.s.s.s.s.s.s.s.s.s.s.a.i.w.% 1.  @   ",
"  =   @.% e.p.a.s.s.s.s.s.s.s.s.s.s.s.s.s.s.s.s.a.i.w.% 1.  @   ",
"  =   @.% e.p.a.s.s.s.s.s.s.s.s.s.s.s.s.s.s.s.s.a.i.w.% 1.  @   ",
"  =   @.% e.p.a.s.s.s.s.s.s.s.s.s.s.s.s.s.s.s.s.a.i.w.% 1.  @   ",
"  =   @.% e.p.a.s.s.s.s.s.s.s.s.s.s.s.s.s.s.s.s.a.i.w.% 1.  @   ",
"  =   | % d.f.g.4.s.s.s.s.s.s.s.s.s.s.s.s.s.s.4.g.h.w.% }   @   ",
"  @   Y % #.j.k.l.z.z.z.z.z.z.z.z.z.z.z.z.z.z.l.k.x.c.% }   @   ",
"  =   v.% b.n.m.M.N.N.N.N.N.N.N.N.N.N.N.N.N.N.M.m.R B.% V.  @   ",
"  =   C.% Z.A.S.D.F.F.F.F.F.F.F.F.F.F.F.F.F.F.D.G.H.J.% C   =   ",
"  *     K.% % % % % % % % % % % % % % % % % % % % % % L.    *   ",
"    *   P.I.U.Y.T.T.T.T.T.T.T.T.T.T.T.T.T.T.T.T.Y.U.R.z   *     "
};

