/* XPM */
static const char *portaclip48X48_xpm[] = {
/* columns rows colors chars-per-pixel */
"48 48 199 2",
"$  c Black",
"0. c #0F0F0F",
"]  c #0B4415",
"l  c #D9D9D9",
"Q  c #E8E8E8",
"f  c #F7F7F7",
"d  c #3C3C3C",
"_  c #878787",
"*X c #969696",
"j. c #21C943",
"6  c #B4B4B4",
"z. c #28F04F",
"^  c #C3C3C3",
"h  c #E1E1E1",
"4  c #F0F0F0",
"y. c #010702",
"p  c #353535",
"   c None",
"j  c #444444",
"[  c #29FD53",
"%X c #010401",
"9  c #8F8F8F",
"3  c #9E9E9E",
"H. c #25DD49",
"o. c #BCBCBC",
"O  c #010101",
".. c #DADADA",
"l. c #22D045",
"=  c #1F1F1F",
"f. c #26ED4F",
"$. c #E9E9E9",
"<  c #F8F8F8",
"V  c #3D3D3D",
"G. c #22CD43",
"5. c #26EA4F",
"e. c #17862D",
"n. c #1BA035",
"Y. c #1FBD3F",
";. c #23DA48",
"m  c #F1F1F1",
"s  c #363636",
"T. c #1FBA3D",
"2  c #727272",
"@X c #909090",
"_. c #2AFB54",
"-X c #020202",
",. c #EAEAEA",
"{  c #2FFF5D",
"+  c #3E3E3E",
"~. c #1DB73C",
"3. c #157D2A",
"M  c #6B6B6B",
"!. c #1DB73D",
"]. c #2AF551",
"9. c #1CA435",
"J  c #7A7A7A",
"XX c #127024",
"M. c #1CA437",
"c. c #20C140",
"Z  c #898989",
".X c #127025",
"p. c #000200",
"i. c #199731",
"0  c #C5C5C5",
"[. c #2DFF5C",
" X c #126D24",
"w  c #E3E3E3",
"u  c #373737",
"2. c #464646",
"Y  c #555555",
"-  c #646464",
"K  c #050002",
"). c #2BFF56",
"@  c #BEBEBE",
"-. c #25E54C",
"b  c #030303",
"v  c #CDCDCD",
"t  c #DCDCDC",
"s. c #16812B",
"w. c #212121",
"&  c #EBEBEB",
"x  c #303030",
",  c #FAFAFA",
"S  c #030001",
"u. c #25E24B",
"}  c #21C542",
"S. c #010602",
"x. c #28EC4E",
"R  c #7B7B7B",
"J. c #25DF4A",
"T  c #8A8A8A",
"X  c #C6C6C6",
"O. c #D5D5D5",
"A  c #010000",
"/  c #E4E4E4",
">. c #292929",
"&. c #1EB23B",
"1  c #F3F3F3",
"h. c #22CF45",
"k  c #383838",
"D. c #1FC240",
"N. c #1BA537",
";  c #656565",
"G  c #747474",
";X c #838383",
"g. c #26E94E",
"~  c #929292",
"/. c #29F352",
"U. c #1FBF3F",
"7. c #26E64C",
"X. c #BFBFBF",
"D  c #040404",
"H  c #DDDDDD",
"V. c #1FBC3E",
"n  c #222222",
"P. c #1FBC3F",
".  c #FBFBFB",
"8. c #26E34B",
"o  c #4F4F4F",
"R. c #1FB93D",
"|. c #15852C",
")  c #7C7C7C",
"(  c #9A9A9A",
"OX c #15822B",
"'. c #27F050",
"P  c #07310F",
"e  c #C7C7C7",
"|  c #0C0C0C",
"F  c #D6D6D6",
"E  c #E5E5E5",
":  c #2A2A2A",
"{. c #F4F4F4",
"`. c #27ED4E",
"t. c #27ED4F",
"'  c #199C33",
"N  c #484848",
"E. c #20C340",
"m. c #1CA637",
"a. c #000401",
"L  c #666666",
"$X c #757575",
":. c #199932",
"Q. c #1DB63C",
"I  c #199933",
"L. c #20C040",
"4. c #24DD4A",
"^. c #1DB33C",
"z  c #141414",
"%. c #232323",
"Z. c #20BD40",
"5  c #EDEDED",
"}. c #083812",
">  c #FCFCFC",
"U  c #137C28",
"c  c #5F5F5F",
"(. c #010B04",
"6. c #010B05",
"d. c #25E44B",
"+. c #D7D7D7",
"b. c #21C743",
"#. c #E6E6E6",
"1. c #F5F5F5",
"k. c #1EBA3E",
"&X c #585858",
"C. c #25E14B",
"y  c #676767",
"v. c #25DE4A",
"W  c #C1C1C1",
"K. c #22D145",
"C  c #060606",
"<. c #EEEEEE",
"a  c #333333",
"%  c #FDFDFD",
"A. c #29F552",
"r. c #26E84D",
"!  c #9C9C9C",
"*. c #2CFF59",
"B. c #1BA136",
"g  c #C9C9C9",
"q. c #0E0E0E",
"@. c #D8D8D8",
"+X c #0A4316",
" . c #E7E7E7",
"8  c #F6F6F6",
"#X c #686868",
"=X c #070707",
"q  c #E0E0E0",
"`  c #127425",
"B  c #EFEFEF",
"i  c #343434",
"*  c #FEFEFE",
"7  c #525252",
"W. c #1DB83D",
"#  c #616161",
"I. c #20C240",
"=. c #000300",
"r  c #ACACAC",
"oX c #126E24",
"F. c #20BF40",
/* pixels */
"                                    .     X o O O + @     .                                     ",
"                                        # $ $ $ $ $ $ o                                         ",
"                                %     $ $ $ $ $ $ $ $ $ $ &   *                                 ",
"                              *     $ $ $ $ = - ; : $ $ $ $     >                               ",
"              , < , , , , , , 1   2 $ $ $ 3   4 5   6 $ $ $ 7   8 , , , , , , < ,               ",
"                                  $ $ $ 9   0 q w e < r $ $ $                       %           ",
"              t y u i p p p a s d $ $ $ f g h j k l g % z $ $ x k a p p p p i c v     *         ",
"      %     o $ $ $ $ $ $ $ $ $ $ b $ n m t M $ $ N h B V $ C $ $ $ $ $ $ $ $ $ $ p     %       ",
"      ,   Z $ $ A $ $ S D $ $ $ $ $ $ c w F 9 $ $ G H H J $ $ $ $ $ $ D K $ $ $ $ $ L   .       ",
"    %     $ $ $ P I U $ $ $ Y T R J 9 E e W Q ! ~ Q ^ ^ / ( J ) _ # $ $ $ ` ' ] $ $ $     %     ",
"    .     $ $ $ [ { } $ $ |   5 Q  ...X.o.o.@ O.+.@ o.o.@ @.#.$.Q   %.$ $ &.{ *.=.$ $ 8   .     ",
"    ,     $ $ $ -.;.:.$ $ >.  ,.<.5 4 1.1.1.1.4 4 1.1.1.1.4 5 5 E   2.$ $ 3.4.5.6.$ $ Q   .     ",
"    >     $ $ $ 7.8.9.$ $ $ n | 0.q.q.q.q.q.q.q.q.q.q.q.q.q.0.0.| w.$ $ $ e.r.t.y.$ $ $.  .     ",
"    ,     $ $ $ 7.u.i.$ p.$ $ $ $ $ $ $ $ $ $ $ $ $ $ $ $ $ $ $ $ $ $ a.$ s.d.f.y.$ $ $.  .     ",
"    ,     $ $ $ g.h.j.$ $ $ $ $ $ $ $ $ $ $ $ $ $ $ $ $ $ $ $ $ $ $ $ $ $ k.l.z.y.$ $ $.  ,     ",
"    ,     $ $ $ x.c.v.b.n.m.M.N.N.N.N.N.N.N.N.N.N.N.N.N.N.N.N.N.N.M.m.B.V.C.Z.A.S.$ $ $.  ,     ",
"    ,     $ $ $ x.D.F.G.H.J.J.J.J.J.J.J.J.J.J.J.J.J.J.J.J.J.J.J.J.J.J.H.K.L.P.A.S.$ $ $.  ,     ",
"    ,     $ $ $ x.I.U.Y.T.R.R.R.R.R.R.R.R.R.R.R.R.R.R.R.R.R.R.R.R.R.R.T.P.U.Y.A.S.$ $ $.  ,     ",
"    ,     $ $ $ x.I.F.L.L.L.L.L.L.L.L.L.L.L.L.L.L.L.L.L.L.L.L.L.L.L.L.L.L.L.P.A.S.$ $ $.  ,     ",
"    ,     $ $ $ x.I.F.L.L.L.L.L.L.L.L.L.L.L.L.L.L.L.L.L.L.L.L.L.L.L.L.L.L.L.P.A.S.$ $ $.  ,     ",
"    ,     $ $ $ x.I.F.L.L.L.L.L.L.L.L.L.L.L.L.L.L.L.L.L.L.L.L.L.L.L.L.L.L.L.P.A.S.$ $ $.  ,     ",
"    ,     $ $ $ x.I.F.L.L.L.L.L.L.L.L.L.L.L.L.L.L.L.L.L.L.L.L.L.L.L.L.L.L.L.P.A.S.$ $ $.  ,     ",
"    ,     $ $ $ x.I.F.L.L.L.L.L.L.L.L.L.L.L.L.L.L.L.L.L.L.L.L.L.L.L.L.L.L.L.P.A.S.$ $ $.  ,     ",
"    ,     $ $ $ x.I.F.L.L.L.L.L.L.L.L.L.L.L.L.L.L.L.L.L.L.L.L.L.L.L.L.L.L.L.P.A.S.$ $ $.  ,     ",
"    ,     $ $ $ x.I.F.L.L.L.L.L.L.L.L.L.L.L.L.L.L.L.L.L.L.L.L.L.L.L.L.L.L.L.P.A.S.$ $ $.  ,     ",
"    ,     $ $ $ x.I.F.L.L.L.L.L.L.L.L.L.L.L.L.L.L.L.L.L.L.L.L.L.L.L.L.L.L.L.P.A.S.$ $ $.  ,     ",
"    ,     $ $ $ x.I.F.L.L.L.L.L.L.L.L.L.L.L.L.L.L.L.L.L.L.L.L.L.L.L.L.L.L.L.P.A.S.$ $ $.  ,     ",
"    ,     $ $ $ x.I.F.L.L.L.L.L.L.L.L.L.L.L.L.L.L.L.L.L.L.L.L.L.L.L.L.L.L.L.P.A.S.$ $ $.  ,     ",
"    ,     $ $ $ x.I.F.L.L.L.L.L.L.L.L.L.L.L.L.L.L.L.L.L.L.L.L.L.L.L.L.L.L.L.P.A.S.$ $ $.  ,     ",
"    ,     $ $ $ x.I.F.L.L.L.L.L.L.L.L.L.L.L.L.L.L.L.L.L.L.L.L.L.L.L.L.L.L.L.P.A.S.$ $ $.  ,     ",
"    ,     $ $ $ x.I.F.L.L.L.L.L.L.L.L.L.L.L.L.L.L.L.L.L.L.L.L.L.L.L.L.L.L.L.P.A.S.$ $ $.  ,     ",
"    ,     $ $ $ x.I.F.L.L.L.L.L.L.L.L.L.L.L.L.L.L.L.L.L.L.L.L.L.L.L.L.L.L.L.P.A.S.$ $ $.  ,     ",
"    ,     $ $ $ x.I.F.L.L.L.L.L.L.L.L.L.L.L.L.L.L.L.L.L.L.L.L.L.L.L.L.L.L.L.P.A.S.$ $ $.  ,     ",
"    ,     $ $ $ x.I.F.L.L.L.L.L.L.L.L.L.L.L.L.L.L.L.L.L.L.L.L.L.L.L.L.L.L.L.P.A.S.$ $ $.  ,     ",
"    ,     $ $ $ x.I.F.L.L.L.L.L.L.L.L.L.L.L.L.L.L.L.L.L.L.L.L.L.L.L.L.L.L.L.P.A.S.$ $ $.  ,     ",
"    ,     $ $ $ x.I.F.L.L.L.L.L.L.L.L.L.L.L.L.L.L.L.L.L.L.L.L.L.L.L.L.L.L.L.P.A.S.$ $ $.  ,     ",
"    ,     $ $ $ x.I.F.L.L.L.L.L.L.L.L.L.L.L.L.L.L.L.L.L.L.L.L.L.L.L.L.L.L.L.P.A.S.$ $ $.  ,     ",
"    ,     $ $ $ x.I.F.L.L.L.L.L.L.L.L.L.L.L.L.L.L.L.L.L.L.L.L.L.L.L.L.L.L.L.P.A.S.$ $ $.  ,     ",
"    ,     $ $ $ x.I.F.L.L.L.L.L.L.L.L.L.L.L.L.L.L.L.L.L.L.L.L.L.L.L.L.L.L.L.P.A.S.$ $ $.  ,     ",
"    ,     $ $ $ x.I.F.L.L.L.L.L.L.L.L.L.L.L.L.L.L.L.L.L.L.L.L.L.L.L.L.L.L.L.P.A.S.$ $ $.  ,     ",
"    .     $ $ $ x.I.F.L.L.L.L.L.L.L.L.L.L.L.L.L.L.L.L.L.L.L.L.L.L.L.L.L.L.L.P.A.S.$ $ $.  >     ",
"    .     $ $ $ x.E.L.L.L.L.L.L.L.L.L.L.L.L.L.L.L.L.L.L.L.L.L.L.L.L.L.L.L.c.Y.A.S.$ $ $.  ,     ",
"    ,     $ $ $ x.W.Q.!.~.~.~.~.~.~.~.~.~.~.~.~.~.~.~.~.~.~.~.~.~.~.~.~.!.!.^./.(.$ $ $.  .     ",
"    .     $ $ $ )._.`.'.'.'.'.'.'.'.'.'.'.'.'.'.'.'.'.'.'.'.'.'.'.'.'.'.'.`.].[.=.$ $ {.  .     ",
"    %     $ $ $ }.|. X.XXXXXXXXXXXXXXXXXXXXXXXXXXXXXXXXXXXXXXXXXXXXXXXXX.XoXOX+X$ $ $     %     ",
"      ,   @X$ $ $ $ $ $ $ $ $ $ $ $ $ $ $ $ $ $ $ $ $ $ $ $ $ $ $ $ $ $ $ $ $ $ $ $ #X  .       ",
"            $X$ $ =.a.a.a.a.a.a.a.a.a.a.a.a.a.a.a.a.a.a.a.a.a.a.a.a.a.a.a.a.%X$ $ &X    %       ",
"        * %   *X=X-X$ $ $ $ $ $ $ $ $ $ $ $ $ $ $ $ $ $ $ $ $ $ $ $ $ $ $ $ -X-X;X  * *         "
};

