/* XPM */
static const char *portaclip16X16_xpm[] = {
/* columns rows colors chars-per-pixel */
"16 16 91 1",
"$ c Black",
"< c #362234",
"  c None",
"Z c #1EB93C",
"r c #491F40",
"W c #28EA4E",
"0 c #004000",
"q c #FFF9FF",
"8 c #FDFFFE",
"' c #106221",
"X c #F8F8F8",
"^ c #29F752",
"g c #008F16",
"d c #27FA51",
"G c #1FC040",
"> c #B5B5B5",
"V c #24ED4E",
"c c #28DB4D",
"s c #FFEDFF",
"u c #1E0015",
"L c #22C141",
"_ c #036718",
"@ c #020202",
"n c #2BE24F",
". c #F9F9F9",
"a c #24E14A",
"( c #2FFF60",
"t c #1C0013",
"% c #4D4D4D",
"9 c #B1B5B2",
"p c #070000",
"- c #382133",
"[ c #7F7B7E",
"& c #555555",
"k c #0B9529",
"f c #10992B",
"4 c #AFB2AF",
"S c #28F250",
"! c #2BFF5D",
"5 c #FAFDFA",
"} c #FAFAFA",
"~ c #2BF954",
"7 c #D5D8D5",
"3 c #003F00",
"B c #FFF8FF",
"j c #00911A",
"C c #21BC3F",
"/ c #29F653",
"I c #24EF4E",
"K c #29F351",
"P c #1FBF3F",
"O c #DDDDDD",
"x c #27F650",
"A c #1FB93D",
"U c #24E64B",
"; c #363235",
", c #363236",
"{ c #777276",
"v c #2BE14F",
"R c #1DB63C",
"H c #20C040",
"* c #FCFCFC",
"1 c #9F929F",
"l c #2BFE55",
"` c #126623",
"N c #2BFB54",
"# c #D7D7D7",
"b c #2CE250",
"y c #1D0014",
"Q c #FFFAFF",
"+ c #060606",
"z c #FFF7FF",
"h c #009019",
"D c #24EE4E",
"Y c #21B83E",
") c #FFF1FF",
"o c #F6F6F6",
"e c #040000",
"i c #4A1E41",
"F c #22C242",
"m c #2BE34F",
"E c #1FB53C",
": c #B8B7B8",
"= c #A69BA5",
"2 c #FEFEFE",
"M c #26D94B",
"] c #066C19",
"w c #22E54B",
"6 c #D9DCDA",
"T c #1DB53C",
"J c #20BF40",
/* pixels */
"  .Xo O+@# oX.  ",
"      $%&$      ",
"* =-;$$:>$$,<1 *",
"2 $3$456789$0$  ",
" q$wertyutipa$s ",
"  $dfghjjhgkl$z ",
"  $xcvbnnbmMN$B ",
"  $VCZZZZZAAS$B ",
"  $DFGHHHHHJK$B ",
"  $DLPHHHHHJK$B ",
"  $DLPHHHHHJK$B ",
"  $IFGHHHHHHK$B ",
"  $UYTRRRRREW$Q ",
" Q$!~^^^^^^/($) ",
"2 $_`''''''`]$ 2",
". [$$$$$$$$$${ }"
};

