/* XPM */
static const char *portaclip64X64_xpm[] = {
/* columns rows colors chars-per-pixel */
"64 64 270 2",
"*  c Black",
"j  c #CACACA",
"7X c #27E64C",
"qX c #1DB23A",
"r. c #199531",
"A  c #2D2D2D",
"X  c #F7F7F7",
"v. c #041A09",
"r  c #4B4B4B",
"JX c #1DAF3A",
"B. c #080B06",
"p. c #080B08",
"&. c #0B3E15",
"f  c #B4B4B4",
"m  c #C3C3C3",
")  c #080808",
"3. c #E1E1E1",
"`X c #F0F0F0",
"L. c #25E34B",
"+X c #25E34C",
"   c None",
"N. c #444444",
"@X c #1A9C33",
"(  c #060B06",
"aX c #1A9C34",
"yX c #1EB93D",
"[  c #060B08",
"5  c #626262",
"rX c #21C341",
"8. c #717171",
"_X c #010401",
"lX c #25E04B",
"w. c #010403",
"#X c #060806",
"kX c #22D346",
"4X c #26F04F",
"G. c #ADADAD",
"@. c #BCBCBC",
"+  c #010101",
"M  c #101010",
"|  c #060506",
"A. c #26ED4F",
",  c #E9E9E9",
"#. c #2E2E2E",
"u  c #F8F8F8",
"!. c #29F752",
"P  c #3D3D3D",
"'. c #040804",
"(. c #26EA4D",
"dX c #26EA4F",
"0. c #797979",
"&X c #29F452",
"2. c #888888",
"bX c #1FC040",
"{  c #040503",
"Y  c #A6A6A6",
"*. c #147929",
"V  c #B5B5B5",
"z. c #C4C4C4",
"N  c #090909",
"). c #1FBD3F",
"]  c #D3D3D3",
"RX c #116C24",
"PX c #181818",
"2  c #E2E2E2",
"^. c #F1F1F1",
"EX c #363636",
"OX c #1FBA3D",
"U  c #545454",
"KX c #26E14A",
",. c #727272",
"5X c #1FB73C",
"nX c #1FB73D",
"o  c #9F9F9F",
"R  c #AEAEAE",
"7. c #BDBDBD",
"1  c #020202",
"g  c #CCCCCC",
" . c #111111",
"W. c #27EE4E",
"`  c #DBDBDB",
"e  c #EAEAEA",
"8  c #2F2F2F",
"g. c #072F11",
"s. c #2FFF5E",
"m. c #2FFF5F",
"$X c #127326",
"S. c #000501",
"y. c #0E561D",
"e. c #04220A",
"o. c #4D4D4D",
"b. c #2FFF61",
"V. c #157D29",
"gX c #1DB73C",
"HX c #1DB73D",
")X c #898989",
"~X c #127024",
"mX c #20C140",
"=X c #000201",
"n. c #27E84C",
"2X c #050604",
"F. c #A7A7A7",
"d. c #27E84D",
"(X c #050605",
"IX c #0B4616",
"*X c #030C04",
"Q. c #1DB43C",
"jX c #20BE3E",
"k. c #C5C5C5",
"=  c #0A0A0A",
"~  c #D4D4D4",
"T. c #191919",
"j. c #E3E3E3",
"=. c #199430",
"O. c #282828",
"P. c #1DB13A",
"k  c #F2F2F2",
":X c #464646",
":. c #646464",
"9. c #737373",
"1X c #030603",
"D. c #030604",
"L  c #919191",
"d  c #AFAFAF",
"!  c #BEBEBE",
">  c #030303",
"l  c #CDCDCD",
"]. c #121212",
"9  c #DCDCDC",
"pX c #1A9E35",
"+. c #EBEBEB",
"i  c #FAFAFA",
"zX c #25E24C",
"GX c #1BAE3A",
"<X c #010603",
"a. c #094015",
"C  c #5D5D5D",
"uX c #1A9B34",
"D  c #6C6C6C",
"M. c #106722",
"Z. c #1BAB37",
"-  c #8A8A8A",
"sX c #1BAB39",
"Y. c #060706",
"s  c #B7B7B7",
"XX c #0B0B0B",
"a  c #D5D5D5",
"O  c #292929",
"$  c #F3F3F3",
"DX c #147E29",
"y  c #383838",
"^X c #147E2A",
"oX c #26EC4F",
"h  c #656565",
"1. c #747474",
"-X c #26E94D",
"VX c #1FBF3F",
"MX c #1FBF40",
"tX c #26E64C",
"_  c #BFBFBF",
":  c #040404",
"J  c #DDDDDD",
"c  c #ECECEC",
"%  c #FBFBFB",
"6X c #26E34C",
"BX c #1FB93D",
"q. c #6D6D6D",
"cX c #23D648",
">X c #27F351",
">. c #7C7C7C",
"4. c #8B8B8B",
"{. c #27F050",
"z  c #B8B8B8",
"b  c #D6D6D6",
"Q  c #E5E5E5",
"I  c #2A2A2A",
"FX c #27ED4F",
"S  c #393939",
"R. c #484848",
",X c #000400",
" X c #000401",
"E. c #127226",
"<. c #757575",
"TX c #27EA4E",
"eX c #1DB63C",
"0X c #27EA4F",
"!X c #126F24",
"hX c #20C040",
"/. c #000100",
"8X c #168C2F",
"}. c #1DB33A",
"X. c #C0C0C0",
";  c #050505",
"%X c #1DB33C",
"6. c #CFCFCF",
"@  c #141414",
"l. c #DEDEDE",
"K  c #EDEDED",
"3  c #323232",
".  c #FCFCFC",
"p  c #414141",
"c. c #030805",
"4  c #5F5F5F",
"QX c #16832B",
"iX c #1AA035",
"'  c #C8C8C8",
"fX c #21C742",
"F  c #D7D7D7",
"%. c #030203",
"5. c #E6E6E6",
"Z  c #2B2B2B",
"C. c #28EE4F",
"q  c #F5F5F5",
"6  c #3A3A3A",
"SX c #494949",
"U. c #1DA736",
"_. c #25E14A",
"xX c #25E14B",
"f. c #30FF61",
"`. c #1A9A33",
"/  c #060906",
"ZX c #1EB73D",
"9X c #106622",
"^  c #060908",
"#  c #949494",
";. c #010201",
"t  c #060606",
"x  c #D0D0D0",
"&  c #151515",
"W  c #EEEEEE",
"UX c #2EFF5F",
"G  c #333333",
"<  c #FDFDFD",
"WX c #0D531A",
"B  c #8D8D8D",
"/X c #105D1F",
"u. c #040604",
"t. c #147A28",
"|. c #020C04",
"H. c #BABABA",
"J. c #C9C9C9",
"$. c #040304",
".. c #E7E7E7",
"NX c #1FBB3D",
"0  c #F6F6F6",
";X c #1FBB3F",
"7  c #686868",
"AX c #1FB83D",
"x. c #959595",
"I. c #26DF4B",
"}  c #B3B3B3",
"H  c #C2C2C2",
"wX c #27EF50",
"T  c #D1D1D1",
".X c #161616",
"E  c #E0E0E0",
"LX c #1CA838",
"v  c #EFEFEF",
"[. c #127426",
"w  c #FEFEFE",
"3X c #000603",
"YX c #27EC4F",
"h. c #050A06",
"-. c #072D0F",
"CX c #127126",
"K. c #000301",
"i. c #8E8E8E",
"~. c #030D04",
"vX c #20BF3F",
"n  c #BBBBBB",
/* pixels */
"                                                  .     X o O + + @ # $     %                                                   ",
"                                                      o & * * * * * * = -                                                       ",
"                                                    ; * * * + : : > * * * * ,                                                   ",
"                                            <   . * * 1 ; * * * * * * : : * * 2   <                                             ",
"                                          <     * * > * * * 3 4 5 6 * * * : * *     .                                           ",
"                                          <   7 * : * * 8 9   0 q w e r * * t * y                                               ",
"                  < u u i i i i i i i i 0     * * + * p   a s d d f g   h * * * * <   q i i i i i i i i u u <                   ",
"                %                           j * t * * k l z x c v b n m   M * N * B                           %                 ",
"                    V C Z A A Z Z Z Z Z O S t * t * D X f a F 6 G H J f K L * : * * P Z Z Z Z Z Z Z A I U Y                     ",
"                T * * * * * * * * * * * * * * * * * R E V W @ * * * Q ! ~ g * * * * * * * * * * * * * * * * * f                 ",
"          %   J * * 1 ^ / ( t : : : t N N N ) : * * s ~ _ ` * * * * H j ' ] * * t t N N N t : : : t ( / [ { * * }   .           ",
"        <     * * | * * * * * * * * * * * * * * *  ...X.n W o.* * O.+._ @.W #.* * * * * * * * * * * * * * * $.* *     w         ",
"        i   ! * %.* * &.*.=.-.* ;.* * :.>.,.<.1.2.3.] ! _ j , # 4.5.6.7._ g 5.# 8.<.9.0.q.* * w.* e.r.t.y.* * u.* i.  u         ",
"        u   :.* p.* a.s.d.f.g.* h.* 8.  e W W c j.k.! X.X._ H 9 l.k.! X.X.! z.l.+.W W e   x.* c.* v.b.n.m.M.* / * S   i         ",
"        i   N.* B.* V.C.Z.A.S.* D.* F.` G.f } f V H.@.@.@.@.n s V n @.@.@.@.n s f } f R l J.* K.* * L.P.I.U.* Y.* T.  %         ",
"        i   R.* / * E.W.Q.!.~.* c.* 7.  ^.X X X X 0 0 0 0 0 0 0 0 0 0 0 0 0 0 0 X X X k   j.* /.* * (.)._.`.* '.* ].  <         ",
"        u   R.* p.* [.{.}.!.|.*  X* ]..XN XXXXXXXXXXXXXXXXXXXXXXXXXXXXXXXXXXXXXXXXXXXX= ].& * K.* * oXOX+X@X* #X* &   %         ",
"        u   R.* p.* $XW.%X&X*X* =X* * * * * * * * * * * * * * * * * * * * * * * * * * * * * * =X* * -X;X+X@X* '.* &   %         ",
"        u   :X* / * $X{.P.>X,X* <X=X1X2XD.D.D.D.D.D.D.D.D.D.D.D.D.D.D.D.D.D.D.D.D.D.D.D.2X1X=X3X* * 4X5X6X@X* #X* &   %         ",
"        u   :X* / * $X{.P.7X8X* * * * * * * * * * * * * * * * * * * * * * * * * * * * * * * * * * 9X0XqX6X@X* #X* &   %         ",
"        u   R.* p.* $XwXeXrXtXyXuXiXpXpXpXpXpXpXpXpXpXpXpXpXpXpXpXpXpXpXpXpXpXpXpXpXpXpXpXpXiXaXsXdXfX5X6X@X* '.* &   %         ",
"        u   R.* p.* $XwXgXhXjXkXlXzXzXzXzXzXzXzXzXzXzXzXzXzXzXzXzXzXzXzXzXzXzXzXzXzXzXzXzXzXzXxXcXvXbXnX+X@X* '.* &   %         ",
"        u   :X* / * $XwXgXmXMXNXBXBXBXBXBXBXBXBXBXBXBXBXBXBXBXBXBXBXBXBXBXBXBXBXBXBXBXBXBXBXBXBXOXVXmXnX+X@X* #X* &   %         ",
"        u   :X* / * $XwXgXhXhXhXhXhXhXhXhXhXhXhXhXhXhXhXhXhXhXhXhXhXhXhXhXhXhXhXhXhXhXhXhXhXhXhXhXhXhXnX+X@X* #X* &   %         ",
"        u   R.* p.* $XwXgXhXhXhXhXhXhXhXhXhXhXhXhXhXhXhXhXhXhXhXhXhXhXhXhXhXhXhXhXhXhXhXhXhXhXhXhXhXhXnX+X@X* '.* &   %         ",
"        u   R.* p.* $XwXgXhXhXhXhXhXhXhXhXhXhXhXhXhXhXhXhXhXhXhXhXhXhXhXhXhXhXhXhXhXhXhXhXhXhXhXhXhXhXnX+X@X* '.* &   %         ",
"        u   :X* / * $XwXgXhXhXhXhXhXhXhXhXhXhXhXhXhXhXhXhXhXhXhXhXhXhXhXhXhXhXhXhXhXhXhXhXhXhXhXhXhXhXnX+X@X* #X* &   %         ",
"        u   :X* / * $XwXgXhXhXhXhXhXhXhXhXhXhXhXhXhXhXhXhXhXhXhXhXhXhXhXhXhXhXhXhXhXhXhXhXhXhXhXhXhXhXnX+X@X* #X* &   %         ",
"        u   R.* p.* $XwXgXhXhXhXhXhXhXhXhXhXhXhXhXhXhXhXhXhXhXhXhXhXhXhXhXhXhXhXhXhXhXhXhXhXhXhXhXhXhXnX+X@X* '.* &   %         ",
"        u   R.* p.* $XwXgXhXhXhXhXhXhXhXhXhXhXhXhXhXhXhXhXhXhXhXhXhXhXhXhXhXhXhXhXhXhXhXhXhXhXhXhXhXhXnX+X@X* '.* &   %         ",
"        u   :X* / * $XwXgXhXhXhXhXhXhXhXhXhXhXhXhXhXhXhXhXhXhXhXhXhXhXhXhXhXhXhXhXhXhXhXhXhXhXhXhXhXhXnX+X@X* #X* &   %         ",
"        u   :X* / * $XwXgXhXhXhXhXhXhXhXhXhXhXhXhXhXhXhXhXhXhXhXhXhXhXhXhXhXhXhXhXhXhXhXhXhXhXhXhXhXhXnX+X@X* #X* &   %         ",
"        u   R.* p.* $XwXgXhXhXhXhXhXhXhXhXhXhXhXhXhXhXhXhXhXhXhXhXhXhXhXhXhXhXhXhXhXhXhXhXhXhXhXhXhXhXnX+X@X* '.* &   %         ",
"        u   R.* p.* $XwXgXhXhXhXhXhXhXhXhXhXhXhXhXhXhXhXhXhXhXhXhXhXhXhXhXhXhXhXhXhXhXhXhXhXhXhXhXhXhXnX+X@X* '.* &   %         ",
"        u   :X* / * $XwXgXhXhXhXhXhXhXhXhXhXhXhXhXhXhXhXhXhXhXhXhXhXhXhXhXhXhXhXhXhXhXhXhXhXhXhXhXhXhXnX+X@X* #X* &   %         ",
"        u   :X* / * $XwXgXhXhXhXhXhXhXhXhXhXhXhXhXhXhXhXhXhXhXhXhXhXhXhXhXhXhXhXhXhXhXhXhXhXhXhXhXhXhXnX+X@X* #X* &   %         ",
"        u   R.* p.* $XwXgXhXhXhXhXhXhXhXhXhXhXhXhXhXhXhXhXhXhXhXhXhXhXhXhXhXhXhXhXhXhXhXhXhXhXhXhXhXhXnX+X@X* '.* &   %         ",
"        u   R.* p.* $XwXgXhXhXhXhXhXhXhXhXhXhXhXhXhXhXhXhXhXhXhXhXhXhXhXhXhXhXhXhXhXhXhXhXhXhXhXhXhXhXnX+X@X* '.* &   %         ",
"        u   :X* / * $XwXgXhXhXhXhXhXhXhXhXhXhXhXhXhXhXhXhXhXhXhXhXhXhXhXhXhXhXhXhXhXhXhXhXhXhXhXhXhXhXnX+X@X* #X* &   %         ",
"        u   :X* / * $XwXgXhXhXhXhXhXhXhXhXhXhXhXhXhXhXhXhXhXhXhXhXhXhXhXhXhXhXhXhXhXhXhXhXhXhXhXhXhXhXnX+X@X* #X* &   %         ",
"        u   R.* p.* $XwXgXhXhXhXhXhXhXhXhXhXhXhXhXhXhXhXhXhXhXhXhXhXhXhXhXhXhXhXhXhXhXhXhXhXhXhXhXhXhXnX+X@X* '.* &   %         ",
"        u   R.* p.* $XwXgXhXhXhXhXhXhXhXhXhXhXhXhXhXhXhXhXhXhXhXhXhXhXhXhXhXhXhXhXhXhXhXhXhXhXhXhXhXhXnX+X@X* '.* &   %         ",
"        u   :X* / * $XwXgXhXhXhXhXhXhXhXhXhXhXhXhXhXhXhXhXhXhXhXhXhXhXhXhXhXhXhXhXhXhXhXhXhXhXhXhXhXhXnX+X@X* #X* &   %         ",
"        u   :X* / * $XwXgXhXhXhXhXhXhXhXhXhXhXhXhXhXhXhXhXhXhXhXhXhXhXhXhXhXhXhXhXhXhXhXhXhXhXhXhXhXhXnX+X@X* #X* &   %         ",
"        u   R.* p.* $XwXgXhXhXhXhXhXhXhXhXhXhXhXhXhXhXhXhXhXhXhXhXhXhXhXhXhXhXhXhXhXhXhXhXhXhXhXhXhXhXnX+X@X* '.* &   %         ",
"        u   R.* p.* $XwXgXhXhXhXhXhXhXhXhXhXhXhXhXhXhXhXhXhXhXhXhXhXhXhXhXhXhXhXhXhXhXhXhXhXhXhXhXhXhXnX+X@X* '.* &   %         ",
"        u   :X* / * $XwXgXhXhXhXhXhXhXhXhXhXhXhXhXhXhXhXhXhXhXhXhXhXhXhXhXhXhXhXhXhXhXhXhXhXhXhXhXhXhXnX+X@X* #X* &   %         ",
"        u   :X* / * $XwXgXhXhXhXhXhXhXhXhXhXhXhXhXhXhXhXhXhXhXhXhXhXhXhXhXhXhXhXhXhXhXhXhXhXhXhXhXhXhXnX+X@X* #X* &   %         ",
"        u   R.* p.* $XwXgXhXhXhXhXhXhXhXhXhXhXhXhXhXhXhXhXhXhXhXhXhXhXhXhXhXhXhXhXhXhXhXhXhXhXhXhXhXhXnX+X@X* '.* &   %         ",
"        u   R.* p.* $XwXgXhXhXhXhXhXhXhXhXhXhXhXhXhXhXhXhXhXhXhXhXhXhXhXhXhXhXhXhXhXhXhXhXhXhXhXhXhXhXnX+X@X* '.* &   %         ",
"        u   :X* / * $XwXgXhXhXhXhXhXhXhXhXhXhXhXhXhXhXhXhXhXhXhXhXhXhXhXhXhXhXhXhXhXhXhXhXhXhXhXhXhXhXnX+X@X* #X* &   %         ",
"        u   :X* / * $XwXgXhXhXhXhXhXhXhXhXhXhXhXhXhXhXhXhXhXhXhXhXhXhXhXhXhXhXhXhXhXhXhXhXhXhXhXhXhXhXnX+X@X* #X* &   %         ",
"        u   R.* p.* $XwXgXhXhXhXhXhXhXhXhXhXhXhXhXhXhXhXhXhXhXhXhXhXhXhXhXhXhXhXhXhXhXhXhXhXhXhXhXhXhXnX+X@X* '.* &   %         ",
"        u   R.* p.* $XwXgXhXhXhXhXhXhXhXhXhXhXhXhXhXhXhXhXhXhXhXhXhXhXhXhXhXhXhXhXhXhXhXhXhXhXhXhXhXhXnX+X@X* '.* &   %         ",
"        u   :X* / * $XwXgXhXhXhXhXhXhXhXhXhXhXhXhXhXhXhXhXhXhXhXhXhXhXhXhXhXhXhXhXhXhXhXhXhXhXhXhXhXhXnX+X@X* #X* &   %         ",
"        u   R.* p.* $XwXgXhXhXhXhXhXhXhXhXhXhXhXhXhXhXhXhXhXhXhXhXhXhXhXhXhXhXhXhXhXhXhXhXhXhXhXhXhXhXnX+X@X* #X* &   %         ",
"        i   :X* / * CXwXZXmXhXhXhXhXhXhXhXhXhXhXhXhXhXhXhXhXhXhXhXhXhXhXhXhXhXhXhXhXhXhXhXhXhXhXhXhXmXAX+X`.* #X* @   %         ",
"        u   SX* p.* DXFXGXZXgXgXgXgXgXgXgXgXgXgXgXgXgXgXgXgXgXgXgXgXgXgXgXgXgXgXgXgXgXgXgXgXgXgXgXgXHXJXKXLX* Y.* PX  %         ",
"        u   :.* p.* IXUXYXwX{.wXwXwXwXwXwXwXwXwXwXwXwXwXwXwXwXwXwXwXwXwXwXwXwXwXwXwXwXwXwXwXwXwXwX{.{.TXm.RX* / * EX  i         ",
"        i   s * %.* * WXQX!XE.E.E.E.E.E.E.E.E.E.E.E.E.E.E.E.E.E.E.E.E.E.E.E.E.E.E.E.E.E.E.E.E.E.E.E.~X^X/X* * (X* )X  u         ",
"        <     * * t * * * * * * * * * * * * * * * * * * * * * * * * * * * * * * * * * * * * * * * * * * * * : * *     w         ",
"          %   9 * * *  X X_X_X_X_X_X_X_X_X_X_X_X_X_X_X_X_X_X_X_X_X_X_X_X_X_X_X_X_X_X_X_X_X_X_X_X_X_X_X X X* * * d   .           ",
"                2 ].* * * * * * * * * * * * * * * * * * * * * * * * * * * * * * * * * * * * * * * * * * * * > n                 ",
"              %   `Xr + 1 * * * * * * * * * * * * * * * * * * * * * * * * * * * * * * * * * * * * * * 1 + EXE   i               "
};

